<svg xmlns="http://www.w3.org/2000/svg" width="497.899" height="127.509" viewBox="0 0 111.531 28.563">
  <metadata><?xpacket begin="﻿" id="W5M0MpCehiHzreSzNTczkc9d"?>
<x:xmpmeta xmlns:x="adobe:ns:meta/" x:xmptk="Adobe XMP Core 5.6-c138 79.159824, 2016/09/14-01:09:01        ">
   <rdf:RDF xmlns:rdf="http://www.w3.org/1999/02/22-rdf-syntax-ns#">
      <rdf:Description rdf:about=""/>
   </rdf:RDF>
</x:xmpmeta>
<?xpacket end="w"?></metadata>
  <path id="Skylith." d="M90.69,40.631l1.47-3.12a13.675,13.675,0,0,0-7.35-2.16c-4.56,0-7.65,2.25-7.65,5.85,0,7.47,11.34,4.86,11.34,9.54,0,1.62-1.47,2.55-3.93,2.55a11.071,11.071,0,0,1-7.11-3.06l-1.53,3.06a12.916,12.916,0,0,0,8.58,3.33c4.62,0,7.92-2.31,7.92-6.06,0.03-7.56-11.31-5.1-11.31-9.69,0-1.41,1.35-2.19,3.42-2.19A12.553,12.553,0,0,1,90.69,40.631ZM108.09,56.5h4.08l-6.36-9.78,5.91-6.18h-3.96l-7.05,7.14V34.241H97.261V56.5h3.449V52.03l2.7-2.85Zm13.71,2.19,7.26-18.149h-3.45l-4.44,12.09-4.77-12.09h-3.57l6.6,15.719-0.54,1.2a2.6,2.6,0,0,1-2.43,1.77,3.373,3.373,0,0,1-2.07-.78l-1.47,2.67a5.4,5.4,0,0,0,3.69,1.35A5.324,5.324,0,0,0,121.8,58.69Zm10.56-24.449V56.5h3.45V34.241h-3.45Zm11.16-.33a2.055,2.055,0,1,0,2.01,2.07A1.988,1.988,0,0,0,143.52,33.911Zm-1.71,6.63V56.5h3.42V40.541h-3.42Zm17.43,12.3a5.57,5.57,0,0,1-2.4.69c-1.08,0-1.71-.51-1.71-2.16v-7.65h4.709v-2.58H155.13v-4.38h-3.42v4.38h-2.25v2.58h2.25V52c0,3.27,2.07,4.65,4.47,4.65a7.657,7.657,0,0,0,3.929-1.17Zm14.309-12.419c-2.73,0-4.769.99-5.909,3.24v-9.42h-3.45V56.5h3.45V48.64c0-2.82,1.71-4.95,4.559-4.98a3.555,3.555,0,0,1,3.84,3.87V56.5h3.45V46.57C179.489,42.761,177.269,40.421,173.549,40.421Zm12.03,12.39a1.86,1.86,0,0,0-1.889,1.95,1.893,1.893,0,1,0,3.779,0A1.861,1.861,0,0,0,185.579,52.81Z" transform="translate(-75.938 -33.906)"/>
</svg>
