<?xml version="1.0" standalone="no"?>
<!DOCTYPE svg PUBLIC "-//W3C//DTD SVG 20010904//EN"
 "http://www.w3.org/TR/2001/REC-SVG-20010904/DTD/svg10.dtd">
<svg version="1.0" xmlns="http://www.w3.org/2000/svg"
 width="138.000000pt" height="229.000000pt" viewBox="0 0 138.000000 229.000000"
 preserveAspectRatio="xMidYMid meet">
<metadata>
Created by potrace 1.13, written by Peter Selinger 2001-2015
</metadata>
<g transform="translate(0.000000,229.000000) scale(0.100000,-0.100000)"
fill="#ffffff" stroke="none">
<path d="M611 2275 c-153 -35 -266 -119 -324 -242 -27 -60 -31 -80 -35 -178
-3 -86 0 -126 13 -171 45 -155 133 -257 319 -366 254 -150 394 -258 475 -365
41 -56 69 -78 172 -144 68 -43 127 -75 131 -73 5 3 8 43 8 89 0 150 -50 263
-175 394 -92 96 -194 169 -355 256 -214 115 -310 196 -367 313 -36 74 -40 191
-7 262 27 58 100 132 161 161 67 33 180 33 282 1 63 -20 83 -32 131 -80 70
-70 123 -174 151 -297 12 -49 23 -96 25 -102 2 -7 15 -13 29 -13 l25 0 0 228
c0 125 3 251 7 280 l6 54 -28 -4 c-23 -2 -30 -10 -41 -46 -15 -53 -40 -82 -68
-82 -12 0 -54 20 -94 45 -39 24 -100 54 -134 66 -80 28 -218 34 -307 14z"/>
<path d="M20 1487 c0 -127 58 -258 159 -357 47 -46 112 -92 223 -158 182 -108
268 -170 356 -255 113 -110 153 -186 153 -290 0 -105 -60 -239 -133 -297 -104
-82 -291 -90 -431 -19 -134 69 -249 276 -272 493 -7 64 -8 66 -36 66 l-29 0 0
-320 0 -320 25 0 c20 0 25 6 31 35 17 93 73 108 168 46 34 -22 97 -52 141 -67
70 -25 95 -28 205 -28 191 -1 311 39 420 141 105 97 158 238 147 393 -15 223
-189 423 -522 600 -143 76 -201 115 -264 175 -31 29 -110 86 -176 127 -183
114 -165 110 -165 35z"/>
</g>
</svg>
